<?xml version="1.0" standalone="no"?><!DOCTYPE svg PUBLIC "-//W3C//DTD SVG 1.1//EN" "http://www.w3.org/Graphics/SVG/1.1/DTD/svg11.dtd"><svg t="1700792715032" class="icon" viewBox="0 0 1024 1024" version="1.1" xmlns="http://www.w3.org/2000/svg" p-id="4062" xmlns:xlink="http://www.w3.org/1999/xlink" width="200" height="200"><path d="M821.075 203.777A278.25 278.25 0 0 0 633.87 128.88a258.354 258.354 0 0 0-182.518 74.898l-60.839 65.697a38.344 38.344 0 0 0 0 60.839 47.376 47.376 0 0 0 63.524-10.225c13.76-14.954 58.155-55.386 58.155-55.386a169.907 169.907 0 0 1 121.678-51.466 189.462 189.462 0 0 1 126.152 51.38 181.07 181.07 0 0 1 0 248.044l-65.525 65.526a40.474 40.474 0 0 0-14.06 28.077 33.36 33.36 0 0 0 14.06 28.076 44.564 44.564 0 0 0 32.762 9.373 66.506 66.506 0 0 0 28.077-9.373l65.526-65.526a273.862 273.862 0 0 0 70.382-187.204 232.791 232.791 0 0 0-70.17-177.832zM573.03 685.763l-65.398 60.839a169.907 169.907 0 0 1-121.679 51.466 189.462 189.462 0 0 1-126.365-51.466 181.07 181.07 0 0 1 0-248.044s43.542-42.136 59.05-58.88 23.05-47.546 6.902-62.798a42.605 42.605 0 0 0-61.691 5.666c-19.257 20.45-60.541 59.646-60.541 59.646a278.293 278.293 0 0 0-74.856 187.375 258.397 258.397 0 0 0 74.856 182.518 270.71 270.71 0 0 0 182.518 70.127 258.354 258.354 0 0 0 182.517-74.899l60.84-60.839a43.755 43.755 0 0 0 0-60.84 47.248 47.248 0 0 0-56.153 0.129z m-201.287-93.686L593.351 370.47q30.126-30.126 60.252 0t0 60.252L431.996 652.33q-30.126 30.126-60.252 0t0-60.252z" p-id="4063" fill="#d81e06"></path></svg>